<svg xmlns="http://www.w3.org/2000/svg" width="149" height="37" viewBox="0 0 149 37">    <path fill="#00BFB3" fill-rule="evenodd" d="M140.778 14.065c0 .855-.306 1.946-.763 2.802h-.039c-3.166-4.244.917-5.684.802-2.802zm-36.507 2.802h-.038c-3.166-4.244.916-5.684.802-2.802 0 .855-.305 1.946-.764 2.802zm42.687.818c-.801.934-1.755 1.44-2.823 1.44s-2.06-.39-2.861-.934c.572-.895 1.259-2.336 1.335-4.05.152-4.398-5.646-4.554-5.57-.31.017 1.639.687 3.21 1.74 4.458-1.87 1.42-4.244.961-4.143-2.123 0-.311-.038-5.1-.076-9.188V6.9h5.76c1.183.04 1.22-1.79.038-1.79l-5.798-.078V.905c0-1.207-1.831-1.207-1.831 0l.038 4.127h-2.861c-1.22-.039-1.22 1.83 0 1.83h2.9v6.112c0 1.648-.069 3.744.05 4.7-.003.004-.007.006-.012.01-.763.857-1.755 1.364-2.862 1.364-2.135.038-3.05-1.87-4.158-3.31-1.678-2.219-4.081-2.647-6.065-1.09-.992-1.907-4.043-1.869-5.836-.156-.804.82-1.508 1.929-2.539 3.048-.058.04-.115.086-.17.145-.8.934-1.754 1.44-2.822 1.44s-2.06-.39-2.862-.934c.573-.895 1.26-2.336 1.336-4.05.152-4.398-5.646-4.554-5.57-.31.038 3.737 3.472 7.124 7.096 7.124 1.595 0 2.945-.778 3.96-1.857a.985.985 0 0 0 .197-.168c1.297-1.362 2.67-3.815 4.197-3.815 1.106 0 1.64 1.285 1.792 2.687.039.7 0 1.4 0 1.907-.038 1.246 1.794 1.285 1.794.04 0-.897.076-2.064 0-3.155.648-.7 1.755-1.44 3.09-.7.724.428 1.64 1.908 2.174 2.608 2.196 2.749 5.478 3.242 8.012.99 1.417 1.922 4.314 1.949 6.507.047 1.178.877 2.581 1.416 4.02 1.416 1.678 0 3.09-.857 4.12-2.025.8-.895-.496-2.101-1.297-1.245zm-48.98 14.093c-.381 1.246-2.365 5.723-3.28 1.79-.458-1.868.762-5.528 4.12-8.214-.077 2.453-.305 4.789-.84 6.424zm-5.226-14.482c-.496-1.597 1.259-3.738 3.052-3.543 1.297.116 2.136.818 2.441 1.985.84 3.114-4.386 5.14-5.493 1.558zm9.804 4.01c-.687.271-1.373.506-1.984.817-.114-3.348-.229-5.606-.61-6.852-1.717-6.113-10.606-2.803-8.927 2.569 1.183 3.815 5.303 3.854 7.592 1.87.114 1.245.153 1.984.19 3.386-7.743 4.906-7.019 14.639-2.708 13.86 3.853-.7 4.463-8.448 4.463-12.77.801-.428 1.64-.817 2.556-1.09 1.144-.39.61-2.141-.572-1.79zm-26.13-7.241c0 .855-.306 1.946-.764 2.802h-.038c-3.166-4.244.916-5.684.801-2.802zm-8.737 2.101c-.724-1.713-1.067-3.737-1.105-4.827-.23-7.747 4.158-9.188 3.51-1.402-.23 2.609-1.336 4.594-2.405 6.229zm14.917 1.519c-.802.934-1.755 1.44-2.824 1.44-1.068 0-2.06-.39-2.86-.934.572-.895 1.258-2.336 1.335-4.05.152-4.398-5.646-4.554-5.57-.31.017 1.648.695 3.226 1.757 4.477-.908.76-1.948 1.121-2.939 1.09-1.107-.04-2.099-.546-2.823-1.558 1.87-2.102 2.937-4.905 3.204-7.747.344-4.01-.648-7.007-2.9-7.163-4.538-.312-5.34 9.46-2.67 14.755-1.487 1.245-3.585 2.063-4.768.584-1.068-1.285.076-3.698 2.404-3.855 1.182-.116 1.067-1.946-.153-1.83-3.548.273-5.264 3.854-3.814 6.541.953 1.869 4.12 2.725 7.324.078 1.03 1.401 2.365 2.024 3.89 2.064 1.544.034 3.087-.476 4.552-1.737 1.18.882 2.588 1.425 4.03 1.425 1.68 0 3.091-.857 4.122-2.025.8-.895-.496-2.101-1.297-1.245zm-39.1 1.363c-1.107-.273-1.794-1.052-1.832-2.181-.038-1.207.763-2.14 1.946-2.375 1.411-.272 2.823.935 2.823 2.298 0 1.4-1.526 2.607-2.938 2.258zm-12.856-.78c-1.182 1.168-3.166 1.013-3.967-.233-.725-1.051-.496-2.414.572-3.426 1.068-1.05 2.48-1.168 3.472-.35 1.105.934 1.105 2.88-.077 4.01zm20.56-4.555c-1.22 1.013-1.792 1.363-3.356 1.363-.84-1.674-2.708-2.725-4.578-2.375-1.983.39-3.471 2.064-3.395 4.205.007.252.036.487.074.714-.024.022-.05.04-.073.065-2.9 3.27-6.6-.04-6.523-1.596.076-1.208-.572-2.492-1.488-3.232-1.831-1.518-4.273-1.09-5.875.428-1.159 1.125-1.787 2.742-1.438 4.326-.03.024-.059.045-.087.074-.801.896-1.526 1.518-2.594 1.518-2.594 0-2.709-3.465-3.32-4.672-.19-.428-.495-.545-.915-.584-.991-.116-2.403-.389-3.242-.895-.267-.117-.534-.195-.877-.078-.305.117-.42.39-.535.662-.381 1.245-1.373 3.154-2.174 4.049-.8.934.534 2.18 1.297 1.245.84-.895 1.87-2.686 2.29-3.815.571.273 1.906.468 2.593.584.038.078.038.195.076.273.61 2.53 1.755 4.983 4.616 4.983 1.5 0 2.736-.654 3.712-1.597 1.6 2.052 4.72 1.952 6.511.273.267-.273.534-.583.725-.934 1.697 2.1 5.24 3.323 8.073.705 2.093 2.692 7.436 1.611 7.528-2.496 1.679-.039 2.633-.584 4.12-1.752.916-.74-.19-2.18-1.144-1.44zm-24.718-4.75c2.136-.077 4.082-.388 6.218.234 1.144.312.649 2.064-.496 1.752-1.831-.506-3.739-.233-5.646-.116-1.182.039-1.297-1.79-.076-1.87zM7.152 31.779c-.381 1.246-2.365 5.723-3.28 1.79-.458-1.868.763-5.528 4.12-8.214-.077 2.453-.305 4.789-.84 6.424zM1.926 17.296c-.495-1.597 1.26-3.738 3.052-3.543 1.297.116 2.137.818 2.442 1.985.839 3.114-4.387 5.14-5.494 1.558zm9.804 4.01c-.686.271-1.373.506-1.983.817-.115-3.348-.23-5.606-.61-6.852C7.42 9.158-1.47 12.468.21 17.84c1.182 3.815 5.302 3.854 7.591 1.87.114 1.245.153 1.984.19 3.386C.249 28.002.974 37.735 5.284 36.956c3.853-.7 4.464-8.448 4.464-12.77.8-.428 1.64-.817 2.555-1.09 1.145-.39.61-2.141-.572-1.79z"/></svg>